<svg xmlns="http://www.w3.org/2000/svg" version="1.1"  viewBox="0 0 1920 1080" preserveAspectRatio="none"><rect width="1920" height="1080" fill="#0c6acf"></rect><g transform="matrix(0.5750000000000001,0.9959292143521044,-0.9959292143521044,0.5750000000000001,918.9708103265523,-663.717357978918)"><path d="M0,-1080C-20.998134407449943,-1007.4212010458722,-132.50786343064507,-801.6159566808751,-125.98880644469966,-644.5272062752333C-119.46974945875425,-487.43845586959145,35.43536447579691,-299.26049767785844,39.11434191567247,-137.46749756614884C42.79331935554803,24.325502545560738,-118.45359594189665,171.58869246036747,-103.91494180544629,326.230794395024C-89.37628766899593,480.87289632968054,107.70588723789504,656.8651676758358,126.34626673437464,790.3851140417905C144.98664623085423,923.9050604077453,40.10659431820648,970.2862469608242,7.927335173431288,1127.3504725907528C-24.251923971343906,1284.4146982206814,-65.40806560537133,1560.662213253154,-66.72928813427654,1732.770467821362C-68.05051066318175,1904.87872238957,-11.121548022379423,2088.795077970227,0,2160L 1920 2160 L 1920 -1080 Z" fill="url(&quot;#SvgjsLinearGradient1138&quot;)"></path><path d="M320,-1080C328.5392985213631,-1001.0954049690038,360.3681168092854,-745.756194515386,371.2357911281786,-606.5724298140225C382.1034654470718,-467.38866511265894,391.61243106604815,-367.1158655912455,385.20604591335905,-244.89741179181885C378.79966076066995,-122.67895799239223,356.71865798742033,7.508501338178519,332.7974802120439,126.7382929825373C308.8763024366675,245.9680846268961,258.31667301803554,314.9614838878067,241.67897926110044,470.4813380743338C225.0412855041653,626.0011922608609,220.12916551726332,928.6339928072546,232.97131767043317,1059.8574181016997C245.81346982360301,1191.080843396145,316.71826470637023,1144.8048325847456,318.73189218011953,1257.821889841005C320.7455196538688,1370.8389470972645,244.84173120961552,1587.5967432794243,245.05308251292894,1737.9597616392568C245.26443381624236,1888.3227799990893,307.5088470854881,2089.6599602732094,320,2160L 1920 2160 L 1920 -1080 Z" fill="url(&quot;#SvgjsLinearGradient1139&quot;)"></path><path d="M640,-1080C623.2939266617018,-940.8137128273564,520.250918226265,-498.7893837508089,539.763559970211,-244.88227696413873C559.276201714157,9.024829822531444,757.7770291604639,157.37802282607106,757.0758504636761,443.4426407200211C756.3746717668884,729.5072586139711,555.0691295334304,1185.4125371862315,535.5564877894844,1471.5054303995612C516.0438460455384,1757.598323612891,622.5927479649141,2045.2509050665935,640,2160L 1920 2160 L 1920 -1080 Z" fill="url(&quot;#SvgjsLinearGradient1140&quot;)"></path><path d="M960,-1080C950.9949674399024,-986.7300012201691,899.9073247183695,-653.6641411573656,905.9698046394149,-520.380007321015C912.0322845604602,-387.09587348466437,1001.6520859279722,-427.0360531434517,996.3748795262718,-280.29519698189597C991.0976731245714,-133.55434082034026,874.1912241140965,196.78999550237648,874.3065662292126,360.06512964831927C874.4219083443288,523.340263794262,992.9392562433934,573.2245571338052,997.0669322169686,699.3556078937607C1001.1946081905437,825.4866586537163,911.6248181734139,948.1605241390072,899.0726220706634,1116.8514342080525C886.520425967913,1285.542344277098,911.5991926122431,1537.642974009375,921.7537556004659,1711.501068308033C931.9083185886886,1885.359162606691,953.625625933411,2085.250178051339,960,2160L 1920 2160 L 1920 -1080 Z" fill="url(&quot;#SvgjsLinearGradient1141&quot;)"></path><path d="M1280,-1080C1300.5870454476888,-1013.4433086576443,1394.511164010832,-828.011996006537,1403.522272686132,-680.6598519458653C1412.533381361432,-533.3077078851936,1355.1599403210246,-380.6302512053768,1334.0666520517996,-195.8871356359702C1312.9733637825746,-11.14402006656357,1306.8336547186505,254.1362726216598,1276.9625430707824,427.7988414705744C1247.0914314229144,601.461410319489,1162.2831229158708,720.4296691248462,1154.8399821645912,846.0882774575175C1147.3968414133117,971.7468857901888,1221.241194332324,1041.5246261097614,1232.3036985631047,1181.750491466602C1243.3662027938853,1321.9763568234425,1213.265623976459,1524.4018848429953,1221.2150075492748,1687.4434695985617C1229.1643911220906,1850.4850543541281,1270.2025012582126,2081.240578266427,1280,2160L 1920 2160 L 1920 -1080 Z" fill="url(&quot;#SvgjsLinearGradient1142&quot;)"></path><path d="M1600,-1080C1587.294196602616,-1030.9373839719076,1514.140379984437,-918.6324360671906,1523.7651796156963,-785.6243038314453C1533.3899792469556,-652.6161715957,1648.4326903901,-446.0860589880401,1657.7487977875558,-281.9512065855282C1667.0649051850114,-117.8163541830163,1607.8492623296997,47.211100592949094,1579.66182400043,199.18481058362613C1551.4743856711602,351.15852057430317,1490.5054543726756,501.95027119108505,1488.6241678119377,629.891053358534C1486.7428812511998,757.831835525983,1556.5894625799556,838.6024913828323,1568.3741046360024,966.82950358832C1580.1587466920491,1095.0565157938076,1537.3957288356353,1272.8813206799937,1559.3320201482177,1399.2531265914597C1581.2683114608,1525.6249325029257,1693.2138558695326,1598.2691934890256,1699.9918525114963,1725.0603390571157C1706.76984915346,1851.8514846252058,1616.665308751916,2087.5100565095195,1600,2160L 1920 2160 L 1920 -1080 Z" fill="url(&quot;#SvgjsLinearGradient1143&quot;)"></path></g><defs><linearGradient x1="0.1" y1="0" x2="0" y2="1" id="SvgjsLinearGradient1138"><stop stop-color="#0c6acf" offset="0"></stop><stop stop-color="#0c8acf" offset="0"></stop></linearGradient><linearGradient x1="0.1" y1="0" x2="0" y2="1" id="SvgjsLinearGradient1139"><stop stop-color="#2085f2" offset="0"></stop><stop stop-color="#20a8f2" offset="0.16666666666666666"></stop></linearGradient><linearGradient x1="0.1" y1="0" x2="0" y2="1" id="SvgjsLinearGradient1140"><stop stop-color="#54a2f5" offset="0"></stop><stop stop-color="#54bdf5" offset="0.3333333333333333"></stop></linearGradient><linearGradient x1="0.1" y1="0" x2="0" y2="1" id="SvgjsLinearGradient1141"><stop stop-color="#88bef8" offset="0"></stop><stop stop-color="#88d1f8" offset="0.5"></stop></linearGradient><linearGradient x1="0.1" y1="0" x2="0" y2="1" id="SvgjsLinearGradient1142"><stop stop-color="#bddbfb" offset="0"></stop><stop stop-color="#bde5fb" offset="0.6666666666666666"></stop></linearGradient><linearGradient x1="0.1" y1="0" x2="0" y2="1" id="SvgjsLinearGradient1143"><stop stop-color="#f1f7fe" offset="0"></stop><stop stop-color="#f1f9fe" offset="0.8333333333333334"></stop></linearGradient></defs></svg>