<svg xmlns="http://www.w3.org/2000/svg" version="1.1"  viewBox="0 0 2100 1080" preserveAspectRatio="none"><rect width="100%" height="100%" fill="#4599f2"></rect><g transform="matrix(0.5750000000000001,0.9959292143521044,-0.9959292143521044,0.5750000000000001,918.0432693567037,-661.5437929215514)"><path d="M0,-1080C8.57497020386566,-986.5854609044734,54.99132035423995,-751.96194086146,51.449821223193965,-519.5127654268404C47.908322092147976,-287.0635899922207,8.513940638157113,77.2528346325949,-21.248994786275944,314.6950526077181C-51.011930210709,552.1372705828412,-150.4124615013573,701.4056318874179,-127.12779132340438,905.1405424238988C-103.84312114545146,1108.8754529603796,97.2710610608742,1327.9612728972527,118.4590262814416,1537.104515826603C139.646991502009,1746.247758755953,19.743171046906934,2056.1840859711006,0,2160L 1920 2160 L 1920 -1080 Z" fill="url(&quot;#SvgjsLinearGradient1036&quot;)"></path><path d="M320,-1080C303.67082435425505,-999.2374005504895,206.04480260914264,-711.2681030262054,222.02494612553028,-595.4244033029372C238.00508964191792,-479.580703579669,378.89656887461626,-493.120956427047,415.8808610983259,-384.93780166039073C452.86515332203555,-276.75464689373445,462.7249770579323,-85.04565532054312,443.93069946778814,53.674525297000514C425.136421877644,192.39470591454415,310.3732143070385,279.5110837687664,303.11519555746094,447.38328204487107C295.8571768078834,615.2554803209757,418.4826825867998,894.9304872359455,400.38258697032273,1060.9077149536283C382.28249135384567,1226.8849426713111,228.56434390342943,1328.7797211265606,194.51462185859873,1443.2466483509681C160.46489981376803,1557.7135755753757,175.17002501110497,1628.2503863585687,196.08425470133852,1747.709278300074C216.99848439157208,1867.1681702415792,299.3473757835564,2091.284879716679,320,2160L 1920 2160 L 1920 -1080 Z" fill="url(&quot;#SvgjsLinearGradient1037&quot;)"></path><path d="M640,-1080C648.796189784176,-994.5708655704253,689.415432835763,-740.3982395153596,692.7771387050564,-567.4251934225522C696.1388445743497,-394.4521473297448,680.6276799630648,-220.0496830262052,660.1702352157603,-42.16172344315572C639.7127904684558,135.72623613989376,574.3682916254634,321.5378396712779,570.032470221229,499.9025640757448C565.6966488169946,678.2672884802117,615.3781073508057,830.4169584043146,634.1553067903537,1028.026622983646C652.9325062299017,1225.636287562977,681.7215513235758,1496.8983220490065,682.6956668585168,1685.5605515517323C683.6697823934578,1874.222781054458,647.1159444764195,2080.926758591955,640,2160L 1920 2160 L 1920 -1080 Z" fill="url(&quot;#SvgjsLinearGradient1038&quot;)"></path><path d="M960,-1080C964.3279424532886,-1009.5490196264926,976.5551411787497,-832.7601454869103,985.967654719732,-657.294117758956C995.3801682607142,-481.8280900310016,1025.9287706183684,-208.9635921738,1016.4750812458935,-27.203833632273984C1007.0213918734186,154.55592490925204,945.3529590356633,305.9374192754616,929.2455184848823,433.2644334902001C913.1380779341013,560.5914477049386,924.8136881713837,619.332926465235,919.8304379412073,736.758251656157C914.8471877110309,854.1835768470789,894.4176043610398,998.6375762450175,899.3460171038237,1137.8163846357322C904.2744298466075,1276.995193026447,939.2919172485476,1401.4671661064008,949.4009143979104,1571.8311020004455C959.5099115472731,1742.1950378944903,958.2334857329851,2061.9718503334075,960,2160L 1920 2160 L 1920 -1080 Z" fill="url(&quot;#SvgjsLinearGradient1039&quot;)"></path><path d="M1280,-1080C1281.829558850964,-951.1441250722191,1287.6522683763876,-585.9297350469176,1290.9773531057842,-306.8647504333151C1294.3024378351809,-27.799765819712604,1314.136746184099,331.04477507347883,1299.95050837638,594.3899076816151C1285.764270568661,857.7350402897514,1209.185010988867,1012.2710298291051,1205.8599262594703,1273.2060452155026C1202.5348415300737,1534.1410606019,1267.6433210432451,2012.2010075359171,1280,2160L 1920 2160 L 1920 -1080 Z" fill="url(&quot;#SvgjsLinearGradient1040&quot;)"></path><path d="M1600,-1080C1604.5291143983638,-990.661658385699,1648.1435506519283,-769.5267520206938,1627.1746863901833,-543.9699503141935C1606.2058221284383,-318.4131486076932,1476.6471411127204,49.53684815025312,1474.1868144295292,273.34081023900217C1471.726487746338,497.1447723277512,1585.4889540986333,608.4556930921899,1612.4127262910365,798.8538222183007C1639.3364984834398,989.2519513444115,1637.7982352991207,1188.8718886987174,1635.729447583948,1415.7295849956672C1633.6606598687754,1642.587281292617,1605.954907930658,2035.9549308326111,1600,2160L 1920 2160 L 1920 -1080 Z" fill="url(&quot;#SvgjsLinearGradient1041&quot;)"></path></g><defs><linearGradient x1="0.1" y1="0" x2="0" y2="1" id="SvgjsLinearGradient1036"><stop stop-color="#4599f2" offset="0"></stop><stop stop-color="#45b6f2" offset="0"></stop></linearGradient><linearGradient x1="0.1" y1="0" x2="0" y2="1" id="SvgjsLinearGradient1037"><stop stop-color="#1a81ef" offset="0"></stop><stop stop-color="#1aa4ef" offset="0.16666666666666666"></stop></linearGradient><linearGradient x1="0.1" y1="0" x2="0" y2="1" id="SvgjsLinearGradient1038"><stop stop-color="#0e6bcd" offset="0"></stop><stop stop-color="#0e8bcd" offset="0.3333333333333333"></stop></linearGradient><linearGradient x1="0.1" y1="0" x2="0" y2="1" id="SvgjsLinearGradient1039"><stop stop-color="#0b54a2" offset="0"></stop><stop stop-color="#0b6da2" offset="0.5"></stop></linearGradient><linearGradient x1="0.1" y1="0" x2="0" y2="1" id="SvgjsLinearGradient1040"><stop stop-color="#083e77" offset="0"></stop><stop stop-color="#085077" offset="0.6666666666666666"></stop></linearGradient><linearGradient x1="0.1" y1="0" x2="0" y2="1" id="SvgjsLinearGradient1041"><stop stop-color="#05274c" offset="0"></stop><stop stop-color="#05334c" offset="0.8333333333333334"></stop></linearGradient></defs></svg>